<svg width="782" height="512" viewBox="0 0 782 512" fill="none" xmlns="http://www.w3.org/2000/svg">
<g opacity="0.025">
<mask id="mask0_17_548" style="mask-type:luminance" maskUnits="userSpaceOnUse" x="0" y="0" width="961" height="512">
<path d="M960.896 511.212H0.110168V-3.05176e-05H960.896V511.212Z" fill="white"/>
</mask>
<g mask="url(#mask0_17_548)">
<g style="mix-blend-mode:screen" opacity="0.1">
<path d="M850.318 236.275V242.096L845.765 239.47V233.65L850.318 236.275ZM967.793 236.641L969.931 237.875L967.793 239.108V242.1L965.517 240.783L963.24 242.1V236.279L967.793 233.654V236.645V236.641ZM669.552 338.136V335.152L671.828 336.461L674.105 335.144V338.136L676.242 339.369L674.105 340.602V343.594L671.828 342.277L669.552 343.594V340.602L667.414 339.369L669.552 338.136ZM845.765 439.634V436.639L850.318 439.264V445.085L848.041 443.768L845.765 445.085V442.093L843.627 440.86L845.765 439.63V439.634ZM199.646 405.373V237.592H204.2V335.144L258.384 303.875V236.275L317.122 202.38V140.036L261.799 171.962L259.522 168.02L317.122 134.777L378.136 99.569L436.874 133.468L495.611 99.569L554.349 133.468L613.087 99.569L671.824 133.468L730.562 99.569L789.3 133.468L848.037 99.569L906.775 133.468L963.081 100.977L965.513 99.573L967.634 100.798L1024.25 133.472L1082.99 99.573L1141.73 133.472L1200.46 99.573L1261.48 134.781V288.439H1256.92V205.209L1200.46 172.627L1198.19 173.943L1144 205.213V272.808L1087.71 305.291L1088.03 305.474L1139.45 335.148L1144 337.774V343.232L1137.31 339.373L1085.26 309.337L1082.98 308.02L1080.71 309.337L1028.66 339.373L1021.97 343.232V337.774L1026.52 335.148L1077.94 305.474L1078.26 305.291L1024.24 274.125L967.781 306.707V371.677L970.543 373.268L1021.97 402.942V402.739L1024.24 404.06L1026.52 402.739V402.942L1077.94 373.268L1082.98 370.36L1088.02 373.268L1142.04 404.442L1146.27 406.885L1139.44 410.827L1087.39 440.868L1085.26 442.101V512.322L1081.84 510.353L1037.79 484.927L1021.96 475.797V408.202L965.501 375.619L963.224 376.936L911.487 406.789L963.224 436.647L967.777 439.272V507.07L970.372 508.566L1021.96 538.34L1025.38 540.309L1023.1 544.252L1020 542.461L967.777 512.326L965.501 511.009L963.224 512.326L911.006 542.461L906.763 544.908L904.486 543.591L902.52 542.457L850.302 512.322L848.025 511.005L845.749 512.322L793.53 542.457L789.288 544.904L785.049 542.457L732.827 512.318L725.997 508.375L685.356 484.923L669.532 475.793V410.823L615.347 442.097V510.058L615.495 572.518L615.503 577.761L615.522 585.073L610.969 585.081L610.949 577.94L610.802 512.314H610.794L558.572 542.457L554.333 544.904L550.09 542.457L497.872 512.318L493.319 509.692V439.264L497.872 436.639L549.286 406.964L549.605 406.781L495.591 375.615L439.13 408.198V474.48H434.577V408.194L432.141 406.777L434.577 405.373V340.602L380.393 309.329V374.299L324.103 406.781L380.393 439.264V512.318L376.978 510.349L319.378 477.11L317.102 478.427L261.779 510.349L258.364 512.318L201.903 544.9L140.889 509.692V439.268L199.626 405.369L199.646 405.373ZM1136.86 407.064L1137.18 406.881L1083 375.611L1028.98 406.777L1029.3 406.96L1080.72 436.635L1083.16 438.051L1085.27 436.838L1136.86 407.064H1136.86ZM1026.53 473.167L1029.29 474.759L1040.08 480.981L1080.72 504.433V442.093L1078.58 440.86L1026.53 410.819V473.163V473.167ZM258.384 309.134L204.2 340.403V402.942L258.384 371.673V309.134ZM317.122 207.636L262.937 238.909V301.448L317.122 270.178V207.636ZM317.122 340.602L262.937 309.329V371.673L317.122 402.942V340.602ZM319.398 274.121L265.385 305.287L319.398 336.461L373.412 305.287L321.153 275.131L319.402 274.121H319.398ZM375.863 106.141L321.679 137.415V199.953L375.863 168.684V106.141ZM434.601 137.411L380.417 106.137V168.68L434.601 199.95V137.411ZM556.63 402.942L610.814 371.673L613.091 370.356L618.129 373.264L669.552 402.938V340.598L667.414 339.365L615.367 309.329L613.091 308.012L610.814 309.329L556.63 340.598V402.938V402.942ZM732.843 439.264V504.433L784.265 474.759L787.027 473.167V408.198L730.566 375.615L676.553 406.781L676.867 406.964L728.289 436.639L732.843 439.264ZM850.318 504.437L901.74 474.763L904.502 473.171V408.198L902.067 406.781L904.502 405.377V340.606L902.365 339.373L850.318 309.333V372.99H848.041L849.18 374.959L794.036 406.785L794.35 406.968L845.765 436.643L850.318 439.268V504.437ZM960.792 305.287L906.779 274.121L852.766 305.287L853.084 305.47L904.498 335.144L906.775 336.461L909.052 335.144L960.474 305.47L960.788 305.287H960.792ZM791.58 207.835V270.178L845.765 301.448V239.108L791.58 207.835ZM559.077 203.793L610.814 233.65L613.091 234.967L615.367 233.65L666.782 203.976L667.1 203.793L613.087 172.627L610.81 173.943L559.073 203.797L559.077 203.793ZM493.339 173.943L441.602 203.797L493.339 233.654L495.615 234.971L497.892 233.654L549.306 203.98L549.625 203.797L495.611 172.631L493.335 173.947L493.339 173.943ZM497.892 301.448L549.314 271.774L552.076 270.182V207.839L500.025 237.879L497.888 239.108V301.452L497.892 301.448ZM618.133 305.47L669.46 335.096L669.552 335.152L671.828 336.461L674.105 335.144L696.389 322.282L725.842 305.287L674.105 275.43L672.37 274.427L669.552 272.804V207.835L617.504 237.875L615.367 239.108V303.875L618.137 305.474L618.133 305.47ZM674.105 402.942L725.527 373.268L728.289 371.677V309.333L676.242 339.373L674.105 340.606V402.946V402.942ZM845.765 306.703L789.304 274.121L735.29 305.287L735.609 305.47L787.023 335.144L791.576 337.77V402.938L842.999 373.264L845.761 371.673V306.703H845.765ZM734.98 237.875L732.843 239.104V301.448L784.265 271.778L787.027 270.178V207.835L734.98 237.875ZM674.105 207.835V270.178L728.289 301.448V239.104L674.105 207.835ZM787.027 340.602L732.843 309.329V371.673L787.027 402.942V340.602ZM610.814 301.448V239.108L556.63 207.835V270.178L610.814 301.448ZM676.553 203.793L676.871 203.976L728.285 233.65L730.562 234.967L732.839 233.65L784.253 203.976L784.571 203.793L730.558 172.627L676.545 203.793H676.553ZM794.346 474.763L845.769 504.437V442.097L843.631 440.864L791.584 410.823V473.167L794.346 474.759V474.763ZM608.044 305.47L608.362 305.287L554.349 274.121L500.336 305.287L500.65 305.47L554.349 336.461L608.04 305.47H608.044ZM441.745 271.67L493.339 301.444V239.1L491.201 237.871L439.154 207.831V270.174L441.745 271.666V271.67ZM493.339 106.145L439.154 137.415V199.953L493.339 168.684V106.145ZM552.076 137.411L497.892 106.141V168.68L552.076 199.95V137.411ZM610.814 106.141L558.592 136.281L556.63 137.415V199.953L608.223 170.18L610.814 168.688V106.145V106.141ZM615.367 106.141V168.684L617.958 170.176L669.552 199.95V137.411L667.59 136.277L615.367 106.137V106.141ZM728.289 106.145L676.067 136.281L674.105 137.415V199.953L725.698 170.18L728.289 168.688V106.149V106.145ZM732.843 106.145V168.684L735.434 170.176L787.027 199.95V137.411L785.065 136.277L732.843 106.141V106.145ZM845.765 106.141L793.542 136.281L791.58 137.415V199.953L843.174 170.18L845.765 168.688V106.145V106.141ZM904.502 137.411L850.318 106.137V168.68L904.502 199.95V137.411ZM963.24 106.141L963.093 106.225L909.056 137.415V199.953L963.236 168.684H963.24V106.141ZM965.517 172.627L963.24 173.943L909.056 205.213V207.854L906.779 206.534L904.502 207.854V205.213L848.041 172.631L794.028 203.797L794.346 203.98L845.761 233.654L850.314 236.279V301.448L901.736 271.774L906.775 268.866L911.814 271.774L963.236 301.448V236.279L967.789 233.654L1019.2 203.98L1019.52 203.797L965.509 172.631L965.517 172.627ZM967.793 106.141V168.684L970.384 170.176L1021.98 199.95V137.411L1020.02 136.277L967.793 106.137V106.141ZM1080.72 106.145L1028.5 136.281L1026.53 137.415V199.953L1078.13 170.18L1080.72 168.688V106.149V106.145ZM1029.3 203.976L1080.72 233.65L1082.99 234.967L1085.27 233.65L1137.01 203.793L1085.27 173.939L1082.99 172.623L1028.98 203.789L1029.3 203.972L1029.3 203.976ZM1085.27 301.448L1139.46 270.178V207.835L1085.27 239.104V301.448ZM1139.46 137.411L1085.27 106.141V168.68L1139.46 199.95V137.411ZM1256.93 137.411L1202.75 106.137V168.68L1256.93 199.95V137.411ZM1198.19 168.684V106.141L1144.01 137.415V199.953L1198.19 168.684ZM1026.53 270.178L1029.29 271.77L1080.72 301.444V239.1L1078.58 237.871L1026.53 207.831V270.174V270.178ZM1021.98 207.835L969.931 237.875L967.793 239.108V301.448L1019.22 271.774L1021.98 270.182V207.839V207.835ZM960.478 373.268L963.24 371.677V309.333L911.193 339.373L909.056 340.606V402.946L960.478 373.272V373.268ZM963.24 442.097L961.103 440.864L909.056 410.823V473.167L911.818 474.759L963.24 504.433V442.093V442.097ZM904.502 538.336L906.779 539.653L909.056 538.336L960.645 508.562L960.963 508.379L906.779 477.11L852.594 508.379L852.913 508.562L904.502 538.336ZM787.027 538.336L789.304 539.653L791.58 538.336L843.17 508.562L843.488 508.379L789.304 477.11L735.119 508.379L735.438 508.562L787.027 538.336ZM674.105 473.167L687.653 480.981L728.293 504.433V442.093L674.109 410.819V473.163L674.105 473.167ZM666.79 406.964L667.104 406.781L613.091 375.615L559.077 406.781L559.396 406.964L610.81 436.639L613.087 437.955L615.363 436.639L666.786 406.964H666.79ZM610.814 442.097L608.677 440.864L556.63 410.823V473.167L559.392 474.759L610.814 504.433V442.093V442.097ZM552.076 538.336L554.353 539.653L556.63 538.336L608.219 508.562L608.537 508.379L554.353 477.11L500.168 508.379L500.487 508.562L552.076 538.336ZM500.025 440.864L497.888 442.097V504.437L549.31 474.763L552.072 473.171V410.827L500.021 440.868L500.025 440.864ZM497.892 371.673L500.654 373.264L552.076 402.938V340.598L549.939 339.365L497.888 309.325V371.669L497.892 371.673ZM439.154 402.942L490.577 373.268L493.339 371.677V309.333L441.291 339.373L439.154 340.606V402.946V402.942ZM436.878 336.461L490.577 305.47L490.891 305.287L436.878 274.121L436.563 274.304L428.253 279.098L382.864 305.291L436.878 336.465V336.461ZM380.417 301.241V301.444L434.601 270.174V205.205L378.14 172.623L324.127 203.789L380.417 236.271V241.73L321.679 207.831V270.174L330.025 274.988L375.863 301.44V301.237L378.14 302.558L380.417 301.237V301.241ZM321.675 473.167L375.859 504.437V442.097L321.675 410.823V473.167ZM321.675 402.942L375.859 371.673V309.329L321.675 340.602V402.942ZM262.937 504.437L317.122 473.167V410.823L262.937 442.093V504.437ZM260.661 437.955L314.674 406.781L260.661 375.615L206.647 406.781L260.661 437.955ZM258.384 442.093L204.2 410.823V473.167L258.384 504.437V442.093ZM201.923 539.649L256.107 508.375L201.923 477.106L147.738 508.375L201.923 539.649ZM145.462 504.437L199.646 473.167V410.628L145.462 441.898V504.437Z" fill="#292929"/>
</g>
<path d="M30.0999 443.644L84.5113 475.049L86.7879 473.732L140.972 442.459V379.749L145.645 377.056C145.661 377.167 145.677 377.282 145.697 377.394L145.526 377.493V439.833L199.71 408.564V346.22L199.129 346.558C199.117 346.462 199.105 346.367 199.093 346.271C199.093 346.271 199.093 346.267 199.093 346.264L204.554 343.117C204.92 343.244 205.286 343.363 205.66 343.463C207.571 343.976 209.449 344.525 211.328 345.042L260.728 373.555L317.189 340.968V278.211L321.671 275.629C321.691 275.824 321.715 276.019 321.743 276.214V338.343L373.79 308.303L375.927 307.069V244.729L375.378 245.044C375.374 244.924 375.362 244.805 375.354 244.689L380.13 241.937C380.237 242.287 380.353 242.633 380.48 242.975V307.069L382.618 308.303L434.669 338.343V274.686H436.945L435.807 272.717L490.951 240.89L490.64 240.711L439.218 211.033L436.496 209.462L434.665 208.407V202.587L436.941 203.904L439.218 202.587V205.579L441.228 206.74L441.355 206.812L493.406 236.852V176.668L497.339 174.405V174.791C497.339 176.414 497.558 177.965 497.96 179.429V239.478L554.421 272.064L608.434 240.89L608.12 240.707L556.697 211.033L552.144 208.407V143.239L551.444 143.645C551.455 143.497 551.471 143.35 551.483 143.207L558.62 139.093L558.974 139.296L599.614 162.748L615.439 171.879V236.848L669.623 205.575V137.617L669.476 75.1541L669.468 69.9107L669.448 62.5986L674.001 62.5906L674.021 69.7317L674.169 135.358H674.177L726.399 105.214L730.638 102.771L734.876 105.214L787.099 135.354L791.652 137.979V208.407L787.099 211.033L735.676 240.707L735.362 240.89L789.375 272.064L845.836 239.478V173.195H850.39V239.482L852.825 240.898L850.39 242.303V307.073L904.574 338.347V273.377L960.864 240.894L904.574 208.411V135.358L907.989 137.327L965.588 170.57L967.865 169.253L1023.19 137.327L1026.6 135.358L1083.06 102.775L1144.08 137.983V208.411L1085.34 242.306V441.202H1080.79V312.531L1026.6 343.801V411.4L967.865 445.299V507.639L1023.19 475.713L1025.46 479.656L967.865 512.899L963.312 515.524V447.726L909.127 479V546.782L906.851 548.099L848.113 514.2L789.375 548.099L787.099 546.782V478.992L732.914 447.718V515.516L730.638 514.2L671.9 548.099L613.162 514.2L610.886 515.516V512.525L608.92 511.391L610.886 510.257V447.718L559.296 477.492L556.701 478.988V546.782L554.425 548.099L495.687 514.2L436.949 548.099L378.212 514.2L321.906 546.69L319.474 548.095L317.353 546.869L260.736 514.196L258.233 515.644V510.388L258.46 510.257V447.718L258.233 447.849V439.702L258.46 439.833V377.493L255.69 375.894L204.275 346.22V408.564L206.412 409.793L238.241 428.161L234.217 431.292L204.279 414.014L202.003 412.697L199.726 414.014L147.989 443.871L199.726 473.728L202.003 475.045L204.052 473.864V546.913L202.003 548.095L143.265 514.196L84.5272 548.095L23.497 512.887V447.448L30.0999 443.644ZM431.899 342.202L380.476 312.528L378.2 311.211L375.923 312.528L324.501 342.202L324.186 342.385L378.2 373.559L432.213 342.385L431.899 342.202ZM552.14 276.003L497.956 244.729V307.069L552.14 338.343V276.003ZM610.878 174.504L597.33 166.687L556.689 143.235V205.575L610.874 236.848V174.508L610.878 174.504ZM610.878 244.729L559.463 274.403L556.693 276.003V338.343L608.74 308.303L610.878 307.069V244.729ZM671.892 209.716L669.615 211.033L618.193 240.707L617.879 240.89L671.892 272.064L725.905 240.89L725.591 240.707L674.169 211.033L671.892 209.716ZM615.431 244.729V307.069L617.568 308.303L669.615 338.343L671.892 339.66L674.169 338.343L728.353 307.069V244.729L674.169 275.999L671.892 277.316L666.853 274.407L615.431 244.733V244.729ZM674.169 205.575L676.306 206.808L728.353 236.848V174.508L725.583 172.909L674.169 143.235V205.575ZM784.5 139.109L732.906 109.336L730.63 108.019L728.353 109.336L676.76 139.109L676.445 139.292L730.63 170.566L784.814 139.292L784.5 139.109ZM784.957 206.808L787.095 205.575V143.235L735.68 172.909L732.91 174.508V236.848L784.957 206.808ZM787.091 276.003L784.321 274.403L732.906 244.729V307.069L735.044 308.303L787.091 338.343V276.003ZM845.828 244.729L794.414 274.403L791.644 276.003V338.343L843.691 308.303L845.828 307.069V244.729ZM963.308 174.504L909.123 143.231V205.571L963.308 236.844V174.504ZM963.308 244.729L909.123 276.003V338.343L963.308 307.069V244.729ZM1022.05 143.235L967.861 174.508V236.848L1022.05 205.579V143.235ZM1085.34 237.047L1139.52 205.774V143.235L1085.34 174.508V237.047ZM1083.06 170.566L1137.24 139.292L1083.06 108.023L1028.88 139.292L1083.06 170.566ZM1026.6 143.235V205.579L1080.78 236.848V174.508L1026.6 143.235ZM1026.6 338.542L1080.78 307.268V244.729L1026.6 276.003V338.542ZM1078.33 240.886L1024.32 209.712L970.305 240.886L1024.32 272.06L1078.33 240.886ZM967.861 244.729V307.069L1022.05 338.343V276.003L967.861 244.729ZM967.861 440.036L1022.05 408.763V346.224L967.861 377.497V440.036ZM963.829 372.54L965.58 373.555L1019.59 342.381L965.58 311.207L911.567 342.381L963.825 372.536L963.829 372.54ZM850.382 510.257L904.566 541.531V478.992L850.382 447.718V510.257ZM850.382 442.463L906.843 475.049L909.119 473.732L960.856 443.875L904.566 411.392V405.934L963.304 439.833V377.493L954.958 372.671L909.119 346.22V346.423L906.843 345.106L904.566 346.423V346.22L850.382 377.493V442.459V442.463ZM848.423 373.372L856.73 368.574L902.118 342.381L848.105 311.207L794.406 342.198L794.092 342.381L848.105 373.555L848.423 373.372ZM791.644 346.224V408.568L793.781 409.797L845.828 439.837V377.497L843.234 376.001L791.644 346.228V346.224ZM791.644 541.531L845.828 510.257V447.718L791.644 478.992V541.531ZM789.367 475.049L791.644 473.732L843.381 443.875L791.644 414.018L789.367 412.701L787.091 414.018L735.668 443.692L735.354 443.875L789.367 475.049ZM732.906 439.833L784.953 409.793L787.091 408.564V346.22L735.676 375.894L732.906 377.493V439.833ZM784.643 342.381L784.329 342.198L730.63 311.207L676.931 342.198L676.616 342.381L730.63 373.555L784.643 342.381ZM674.169 346.224V408.564L728.353 439.837V377.497L674.169 346.224ZM674.169 541.531L726.391 511.391L728.353 510.257V447.718L676.764 477.492L674.169 478.988V541.531ZM674.169 473.732L725.905 443.875L674.169 414.018L671.892 412.701L669.615 414.018L618.193 443.692L617.879 443.875L671.892 475.049L674.169 473.732ZM615.431 510.257L617.397 511.391L669.615 541.531V478.992L667.02 477.496L615.431 447.722V510.261V510.257ZM612.613 373.24L615.431 374.864V439.833L667.478 409.793L669.615 408.56V343.793L666.853 342.194L615.522 312.575L615.431 312.52L613.154 311.203L610.878 312.52L588.593 325.381L559.141 342.377L610.878 372.234L612.613 373.236V373.24ZM610.878 377.497L556.693 346.224V408.568L610.878 439.837V377.497ZM608.43 443.875L608.116 443.692L556.693 414.018L554.417 412.701L552.14 414.018L500.718 443.692L500.403 443.875L554.417 475.049L608.43 443.875ZM497.956 510.257L499.922 511.391L552.14 541.531V478.992L549.545 477.496L497.956 447.722V510.261V510.257ZM497.956 439.833L550.003 409.793L552.14 408.564V346.22L500.726 375.894L497.956 377.493V439.833ZM549.688 342.381L549.374 342.198L497.952 312.524L493.398 309.898V244.729L441.984 274.403L439.214 276.003V340.968L495.675 373.555L549.688 342.381ZM439.218 346.224V408.564L493.402 439.837V377.497L439.218 346.224ZM439.218 541.531L491.44 511.391L493.402 510.257V447.718L441.813 477.492L439.218 478.988V541.531ZM380.48 510.257L434.665 541.531V478.992L380.48 447.718V510.257ZM321.743 541.531L321.89 541.447L375.927 510.257V447.718L321.747 478.992H321.743V541.531ZM319.466 475.049L321.743 473.732L375.927 442.459V439.817L378.204 441.142L380.48 439.817V442.459L436.941 475.045L490.955 443.871L490.64 443.688L439.218 414.014L434.665 411.388V346.22L383.242 375.894L378.204 378.802L373.165 375.894L321.743 346.22V411.388L317.189 414.014L265.767 443.688L265.453 443.871L319.466 475.045V475.049ZM263.005 510.257L264.967 511.391L317.189 541.531V478.992L314.594 477.496L263.005 447.722V510.261V510.257ZM263.005 439.833L315.056 409.793L317.193 408.56V346.22L265.779 375.894L263.009 377.493V439.833H263.005ZM145.526 510.257L199.71 541.531V478.992L145.526 447.718V510.257ZM86.7879 541.531L140.972 510.257V447.718L86.7879 478.992V541.531ZM28.0502 510.257L82.2347 541.531V478.992L28.0502 447.718V510.257Z" fill="#292929"/>
</g>
</g>
</svg>
