<?xml version="1.0" encoding="UTF-8"?><svg id="Layer_1" xmlns="http://www.w3.org/2000/svg" viewBox="0 0 67.042481198906898 85.790179562363846"><defs><style>.cls-1{fill:#fff;}.cls-2{fill:#e71e25;}</style></defs><rect class="cls-1" x="3.20914713541606" y="2.59920734014031" width="59.777777777777374" height="48.000000000000909"/><path class="cls-2" d="m.042481198906898,26.321428571436627v26.321428571436627h67V0H.042481198906898v26.321428571436627Zm41.020408163283719-15.040816326539243v7.17857142858611h14.357142857126746v15.040816326516506h-14.357142857126746v14.357142857143117h-15.040816326540153v-14.357142857143117h-14.357142857154031v-15.040816326516506h14.357142857154031V4.102040816334011h15.040816326540153v7.178571428563373Z"/><path class="cls-1" d="m3.57080078125,80.775531124863846c-.6181640625,0-1.1455078125-.126953125-1.58203125-.3818359375-.4365234375-.25390625-.7685546875-.623046875-.99658203125-1.1064453125-.2275390625-.484375-.34130859375-1.0732421875-.34130859375-1.767578125v-.6982421875l1.77294921875-.0185546875v.669921875c0,.416015625.09912109375.73828125.296875.9677734375s.4814453125.34375.85009765625.34375c.3525390625,0,.625-.11328125.8173828125-.3388671875.1923828125-.2265625.2890625-.5478515625.2890625-.962890625v-1.181640625c0-.322265625-.076171875-.587890625-.22802734375-.7958984375-.15185546875-.20703125-.35107421875-.388671875-.59765625-.5439453125-.2470703125-.1552734375-.51416015625-.310546875-.80126953125-.46484375-.2763671875-.1494140625-.55615234375-.318359375-.837890625-.5078125-.28173828125-.1884765625-.541015625-.4150390625-.77685546875-.6787109375s-.42431640625-.587890625-.5654296875-.9716796875c-.140625-.384765625-.21142578125-.8564453125-.21142578125-1.4140625v-.7353515625c0-1.029296875.2509765625-1.8232421875.75244140625-2.3818359375.50146484375-.5576171875,1.21630859375-.8369140625,2.1435546875-.8369140625.89990234375,0,1.5966796875.2822265625,2.09033203125.8466796875.4931640625.564453125.74267578125,1.3642578125.748046875,2.400390625v.734375l-1.78125.0185546875v-.697265625c0-.427734375-.09228515625-.7548828125-.2763671875-.9814453125-.1845703125-.2265625-.44482421875-.33984375-.78076171875-.33984375-.36328125,0-.64013671875.107421875-.82958984375.3212890625-.18994140625.2138671875-.28466796875.509765625-.28466796875.8876953125v.875c0,.359375.083984375.6494140625.251953125.8701171875.16796875.2197265625.38623046875.4072265625.65478515625.5625s.55419921875.3193359375.85791015625.4931640625c.265625.142578125.5302734375.2978515625.79345703125.46484375.2626953125.16796875.50390625.37109375.7236328125.609375.2197265625.2392578125.3974609375.54296875.53271484375.912109375.1357421875.369140625.20361328125.8291015625.20361328125,1.380859375v1.181640625c0,1.048828125-.2509765625,1.8544921875-.75244140625,2.4189453125s-1.21337890625.8466796875-2.13525390625.8466796875Z"/><path class="cls-1" d="m9.82568359375,77.026507687363846l1.37451171875-9.9169921875h1.3505859375l1.37451171875,9.9169921875.8134765625-9.9169921875h1.79736328125l-1.56982421875,13.5263671875h-1.81396484375l-1.22802734375-8.9677734375-1.31787109375,8.9677734375h-1.81396484375l-1.57763671875-13.5263671875h1.79736328125l.8134765625,9.9169921875Z"/><path class="cls-1" d="m19.11474609375,67.109515499863846v13.5263671875h-1.7890625v-13.5263671875h1.7890625Z"/><path class="cls-1" d="m23.36083984375,80.775531124863846c-.6181640625,0-1.1455078125-.126953125-1.58203125-.3818359375-.4365234375-.25390625-.7685546875-.623046875-.99658203125-1.1064453125-.2275390625-.484375-.34130859375-1.0732421875-.34130859375-1.767578125v-.6982421875l1.77294921875-.0185546875v.669921875c0,.416015625.09912109375.73828125.296875.9677734375s.4814453125.34375.85009765625.34375c.3525390625,0,.625-.11328125.8173828125-.3388671875.1923828125-.2265625.2890625-.5478515625.2890625-.962890625v-1.181640625c0-.322265625-.076171875-.587890625-.22802734375-.7958984375-.15185546875-.20703125-.35107421875-.388671875-.59765625-.5439453125-.2470703125-.1552734375-.51416015625-.310546875-.80126953125-.46484375-.2763671875-.1494140625-.55615234375-.318359375-.837890625-.5078125-.28173828125-.1884765625-.541015625-.4150390625-.77685546875-.6787109375s-.42431640625-.587890625-.5654296875-.9716796875c-.140625-.384765625-.21142578125-.8564453125-.21142578125-1.4140625v-.7353515625c0-1.029296875.2509765625-1.8232421875.75244140625-2.3818359375.50146484375-.5576171875,1.21630859375-.8369140625,2.1435546875-.8369140625.89990234375,0,1.5966796875.2822265625,2.09033203125.8466796875.4931640625.564453125.74267578125,1.3642578125.748046875,2.400390625v.734375l-1.78125.0185546875v-.697265625c0-.427734375-.09228515625-.7548828125-.2763671875-.9814453125-.1845703125-.2265625-.44482421875-.33984375-.78076171875-.33984375-.36328125,0-.64013671875.107421875-.82958984375.3212890625-.18994140625.2138671875-.28466796875.509765625-.28466796875.8876953125v.875c0,.359375.083984375.6494140625.251953125.8701171875.16796875.2197265625.38623046875.4072265625.65478515625.5625s.55419921875.3193359375.85791015625.4931640625c.265625.142578125.5302734375.2978515625.79345703125.46484375.2626953125.16796875.50390625.37109375.7236328125.609375.2197265625.2392578125.3974609375.54296875.53271484375.912109375.1357421875.369140625.20361328125.8291015625.20361328125,1.380859375v1.181640625c0,1.048828125-.2509765625,1.8544921875-.75244140625,2.4189453125s-1.21337890625.8466796875-2.13525390625.8466796875Z"/><path class="cls-1" d="m30.2177734375,80.775531124863846c-.6181640625,0-1.1455078125-.126953125-1.58203125-.3818359375-.4365234375-.25390625-.7685546875-.623046875-.99658203125-1.1064453125-.2275390625-.484375-.34130859375-1.0732421875-.34130859375-1.767578125v-.6982421875l1.77294921875-.0185546875v.669921875c0,.416015625.09912109375.73828125.296875.9677734375s.4814453125.34375.85009765625.34375c.3525390625,0,.625-.11328125.8173828125-.3388671875.1923828125-.2265625.2890625-.5478515625.2890625-.962890625v-1.181640625c0-.322265625-.076171875-.587890625-.22802734375-.7958984375-.15185546875-.20703125-.35107421875-.388671875-.59765625-.5439453125-.2470703125-.1552734375-.51416015625-.310546875-.80126953125-.46484375-.2763671875-.1494140625-.55615234375-.318359375-.837890625-.5078125-.28173828125-.1884765625-.541015625-.4150390625-.77685546875-.6787109375s-.42431640625-.587890625-.5654296875-.9716796875c-.140625-.384765625-.21142578125-.8564453125-.21142578125-1.4140625v-.7353515625c0-1.029296875.2509765625-1.8232421875.75244140625-2.3818359375.50146484375-.5576171875,1.21630859375-.8369140625,2.1435546875-.8369140625.89990234375,0,1.5966796875.2822265625,2.09033203125.8466796875.4931640625.564453125.74267578125,1.3642578125.748046875,2.400390625v.734375l-1.78125.0185546875v-.697265625c0-.427734375-.09228515625-.7548828125-.2763671875-.9814453125-.1845703125-.2265625-.44482421875-.33984375-.78076171875-.33984375-.36328125,0-.64013671875.107421875-.82958984375.3212890625-.18994140625.2138671875-.28466796875.509765625-.28466796875.8876953125v.875c0,.359375.083984375.6494140625.251953125.8701171875.16796875.2197265625.38623046875.4072265625.65478515625.5625s.55419921875.3193359375.85791015625.4931640625c.265625.142578125.5302734375.2978515625.79345703125.46484375.2626953125.16796875.50390625.37109375.7236328125.609375.2197265625.2392578125.3974609375.54296875.53271484375.912109375.1357421875.369140625.20361328125.8291015625.20361328125,1.380859375v1.181640625c0,1.048828125-.2509765625,1.8544921875-.75244140625,2.4189453125s-1.21337890625.8466796875-2.13525390625.8466796875Z"/><path class="cls-1" d="m41.80029296875,75.035296749863846l2.228515625-7.92578125h1.626953125v13.5263671875h-1.6103515625v-9.8427734375l.1298828125.595703125-1.87109375,6.94921875h-1.0078125l-1.87109375-6.763671875.1787109375-.78125v9.8427734375h-1.6591796875v-13.5263671875h1.68359375l2.171875,7.92578125Z"/><path class="cls-1" d="m46.45361328125,80.635882687363846l2.78125-13.5263671875h1.416015625l2.78125,13.5263671875h-1.830078125l-1.6591796875-9.814453125-1.6591796875,9.814453125h-1.830078125Zm1.837890625-2.5302734375v-1.9072265625h3.3681640625v1.9072265625h-3.3681640625Z"/><path class="cls-1" d="m54.39208984375,80.635882687363846v-13.5263671875h1.7890625v13.5263671875h-1.7890625Zm1.1630859375,0v-1.9443359375h1.837890625c.27734375,0,.4892578125-.0947265625.638671875-.2841796875.1494140625-.1884765625.2236328125-.45703125.2236328125-.8046875v-7.4609375c0-.353515625-.07421875-.623046875-.2236328125-.80859375-.1494140625-.1865234375-.361328125-.279296875-.638671875-.279296875h-1.837890625v-1.9443359375h1.919921875c.818359375,0,1.453125.25390625,1.9033203125.7626953125s.6748046875,1.2314453125.6748046875,2.16796875v7.6650390625c0,.6201171875-.1015625,1.1494140625-.3046875,1.5859375-.2041015625.4375-.4990234375.771484375-.88671875,1.0009765625s-.8525390625.34375-1.3955078125.34375h-1.9111328125Z"/><path class="cls-1" d="m61.41943359375,80.635882687363846v-13.5263671875h1.7890625v13.5263671875h-1.7890625Zm.8544921875-11.5634765625v-1.962890625h4.318359375v1.962890625h-4.318359375Zm0,5.8232421875v-1.953125h3.912109375v1.953125h-3.912109375Zm0,5.740234375v-1.962890625h4.318359375v1.962890625h-4.318359375Z"/></svg>