<?xml version="1.0" encoding="utf-8"?>
<!-- Generator: Adobe Illustrator 16.0.0, SVG Export Plug-In . SVG Version: 6.00 Build 0)  -->
<!DOCTYPE svg PUBLIC "-//W3C//DTD SVG 1.1//EN" "http://www.w3.org/Graphics/SVG/1.1/DTD/svg11.dtd">
<svg version="1.1" id="Ebene_1" xmlns="http://www.w3.org/2000/svg" xmlns:xlink="http://www.w3.org/1999/xlink" x="0px" y="0px"
	 width="41.123px" height="41.127px" viewBox="43.089 73.476 41.123 41.127" enable-background="new 43.089 73.476 41.123 41.127"
	 xml:space="preserve">
<g id="hintergrund">
</g>
<g>
	<g>
		<path fill="#00FF00" d="M63.656,114.622c-11.332,0-20.551-9.217-20.551-20.547c0-11.327,9.219-20.543,20.551-20.543
			c11.327,0,20.543,9.216,20.543,20.543C84.199,105.405,74.983,114.622,63.656,114.622z M63.656,74.989
			c-10.527,0-19.093,8.562-19.093,19.086c0,10.526,8.565,19.09,19.093,19.09c10.523,0,19.086-8.563,19.086-19.09
			C82.742,83.552,74.18,74.989,63.656,74.989z"/>
	</g>
	<g>
		<path fill="#00FF00" d="M61.215,114.472c-0.774-0.157-1.539-0.395-2.271-0.704c-0.715-0.302-1.406-0.676-2.056-1.114
			c-0.641-0.432-1.243-0.931-1.791-1.478c-0.547-0.547-1.044-1.149-1.478-1.79c-0.437-0.646-0.812-1.339-1.115-2.056
			c-0.31-0.731-0.547-1.496-0.705-2.272c-0.163-0.797-0.246-1.617-0.246-2.438s0.083-1.64,0.246-2.437
			c0.158-0.776,0.396-1.541,0.705-2.272c0.304-0.718,0.679-1.408,1.115-2.055c0.432-0.64,0.929-1.241,1.478-1.789
			c0.547-0.547,1.148-1.044,1.79-1.478c0.646-0.436,1.338-0.812,2.056-1.115c0.73-0.308,1.495-0.546,2.272-0.704
			c1.591-0.325,3.281-0.326,4.874,0c0.777,0.159,1.542,0.396,2.271,0.704c0.718,0.305,1.409,0.68,2.055,1.115
			c0.642,0.435,1.244,0.931,1.79,1.478c0.548,0.548,1.045,1.15,1.477,1.789c0.437,0.646,0.812,1.337,1.115,2.055
			c0.309,0.729,0.546,1.494,0.705,2.272c0.163,0.795,0.246,1.615,0.246,2.437s-0.083,1.642-0.246,2.438
			c-0.159,0.777-0.396,1.542-0.705,2.271c-0.303,0.717-0.679,1.409-1.115,2.056c-0.433,0.641-0.93,1.242-1.477,1.79
			c-0.548,0.547-1.149,1.044-1.79,1.478c-0.649,0.438-1.341,0.812-2.056,1.114c-0.731,0.31-1.496,0.547-2.271,0.704l-0.292-1.427
			c0.681-0.139,1.352-0.348,1.996-0.619c0.628-0.267,1.235-0.597,1.807-0.981c0.563-0.381,1.093-0.818,1.574-1.3
			s0.919-1.011,1.3-1.575c0.385-0.567,0.715-1.177,0.98-1.807c0.271-0.642,0.48-1.313,0.62-1.997c0.144-0.7,0.216-1.422,0.216-2.146
			s-0.072-1.444-0.216-2.145c-0.14-0.684-0.349-1.355-0.62-1.996c-0.267-0.631-0.597-1.238-0.98-1.807
			c-0.38-0.562-0.817-1.093-1.3-1.575c-0.48-0.48-1.011-0.918-1.575-1.3c-0.567-0.383-1.175-0.713-1.807-0.979
			c-0.641-0.271-1.312-0.48-1.996-0.62c-1.399-0.287-2.89-0.287-4.288,0c-0.684,0.14-1.355,0.349-1.997,0.62
			c-0.632,0.267-1.239,0.597-1.808,0.979c-0.564,0.382-1.095,0.819-1.575,1.3c-0.482,0.482-0.92,1.013-1.301,1.575
			c-0.384,0.568-0.714,1.176-0.98,1.807c-0.271,0.643-0.48,1.313-0.62,1.996c-0.144,0.701-0.216,1.422-0.216,2.145
			s0.072,1.444,0.216,2.146c0.14,0.683,0.348,1.354,0.62,1.997c0.266,0.63,0.596,1.239,0.98,1.807
			c0.381,0.564,0.818,1.094,1.301,1.575c0.481,0.482,1.012,0.92,1.575,1.3c0.571,0.386,1.179,0.715,1.808,0.981
			c0.644,0.271,1.315,0.48,1.996,0.619L61.215,114.472z"/>
	</g>
	<g>
		<g>
			<path fill="#00FF00" d="M84.211,114.64H43.09V73.513h41.121V114.64z M44.586,113.145h38.13V75.009h-38.13V113.145z"/>
		</g>
		<g>
			<path fill="#00FF00" d="M63.651,114.144L43.56,73.513h40.187L63.651,114.144z M45.97,75.009l17.682,35.759l17.685-35.759H45.97z"
				/>
		</g>
	</g>
	<g>
		<rect x="62.87" y="74.277" fill="#00FF00" width="1.497" height="38.17"/>
	</g>
</g>
</svg>
